<mxfile host="app.diagrams.net" modified="2023-08-15T17:45:27.024Z" agent="Mozilla/5.0 (Windows NT 10.0; Win64; x64) AppleWebKit/537.36 (KHTML, like Gecko) Chrome/115.0.0.0 Safari/537.36" etag="8taWkdHLgSOdNKjj7oJg" version="21.6.8" type="github">
  <diagram name="Seite-1" id="iEP1QGO_yDu1t5_AjlDD">
    <mxGraphModel dx="880" dy="446" grid="1" gridSize="10" guides="1" tooltips="1" connect="1" arrows="1" fold="1" page="1" pageScale="1" pageWidth="827" pageHeight="1169" math="0" shadow="0">
      <root>
        <mxCell id="0" />
        <mxCell id="1" parent="0" />
        <mxCell id="djvwbA_r1d7vHz5ifuuT-7" value="" style="rounded=0;whiteSpace=wrap;html=1;" vertex="1" parent="1">
          <mxGeometry x="380" y="30" width="220" height="450" as="geometry" />
        </mxCell>
        <mxCell id="djvwbA_r1d7vHz5ifuuT-8" value="" style="ellipse;whiteSpace=wrap;html=1;" vertex="1" parent="1">
          <mxGeometry x="428" y="79" width="120" height="60" as="geometry" />
        </mxCell>
        <mxCell id="djvwbA_r1d7vHz5ifuuT-10" value="" style="ellipse;whiteSpace=wrap;html=1;" vertex="1" parent="1">
          <mxGeometry x="428" y="179" width="120" height="80" as="geometry" />
        </mxCell>
        <mxCell id="djvwbA_r1d7vHz5ifuuT-11" value="" style="ellipse;whiteSpace=wrap;html=1;" vertex="1" parent="1">
          <mxGeometry x="440" y="289" width="100" height="80" as="geometry" />
        </mxCell>
        <mxCell id="djvwbA_r1d7vHz5ifuuT-13" value="Unos događaja" style="text;html=1;strokeColor=none;fillColor=none;align=center;verticalAlign=middle;whiteSpace=wrap;rounded=0;fontSize=18;" vertex="1" parent="1">
          <mxGeometry x="440.5" y="89" width="95" height="40" as="geometry" />
        </mxCell>
        <mxCell id="djvwbA_r1d7vHz5ifuuT-18" value="" style="ellipse;whiteSpace=wrap;html=1;" vertex="1" parent="1">
          <mxGeometry x="428" y="399" width="120" height="60" as="geometry" />
        </mxCell>
        <mxCell id="djvwbA_r1d7vHz5ifuuT-20" value="Pregled rasporeda" style="text;html=1;strokeColor=none;fillColor=none;align=center;verticalAlign=middle;whiteSpace=wrap;rounded=0;fontSize=18;" vertex="1" parent="1">
          <mxGeometry x="458" y="414" width="60" height="30" as="geometry" />
        </mxCell>
        <mxCell id="djvwbA_r1d7vHz5ifuuT-21" value="Ažuriranje događaja" style="text;html=1;strokeColor=none;fillColor=none;align=center;verticalAlign=middle;whiteSpace=wrap;rounded=0;fontSize=18;" vertex="1" parent="1">
          <mxGeometry x="460" y="204" width="60" height="30" as="geometry" />
        </mxCell>
        <mxCell id="djvwbA_r1d7vHz5ifuuT-22" value="Brisanje događaja" style="text;html=1;strokeColor=none;fillColor=none;align=center;verticalAlign=middle;whiteSpace=wrap;rounded=0;fontSize=18;" vertex="1" parent="1">
          <mxGeometry x="460" y="314" width="60" height="30" as="geometry" />
        </mxCell>
        <mxCell id="djvwbA_r1d7vHz5ifuuT-25" style="edgeStyle=orthogonalEdgeStyle;rounded=0;orthogonalLoop=1;jettySize=auto;html=1;exitX=0.5;exitY=0.5;exitDx=0;exitDy=0;exitPerimeter=0;entryX=0;entryY=0.5;entryDx=0;entryDy=0;" edge="1" parent="1" source="djvwbA_r1d7vHz5ifuuT-24" target="djvwbA_r1d7vHz5ifuuT-8">
          <mxGeometry relative="1" as="geometry" />
        </mxCell>
        <mxCell id="djvwbA_r1d7vHz5ifuuT-26" style="edgeStyle=orthogonalEdgeStyle;rounded=0;orthogonalLoop=1;jettySize=auto;html=1;exitX=0.5;exitY=0.5;exitDx=0;exitDy=0;exitPerimeter=0;entryX=0;entryY=0.5;entryDx=0;entryDy=0;" edge="1" parent="1" source="djvwbA_r1d7vHz5ifuuT-24" target="djvwbA_r1d7vHz5ifuuT-10">
          <mxGeometry relative="1" as="geometry" />
        </mxCell>
        <mxCell id="djvwbA_r1d7vHz5ifuuT-27" style="edgeStyle=orthogonalEdgeStyle;rounded=0;orthogonalLoop=1;jettySize=auto;html=1;exitX=0.5;exitY=0.5;exitDx=0;exitDy=0;exitPerimeter=0;entryX=0;entryY=0.5;entryDx=0;entryDy=0;" edge="1" parent="1" source="djvwbA_r1d7vHz5ifuuT-24" target="djvwbA_r1d7vHz5ifuuT-11">
          <mxGeometry relative="1" as="geometry" />
        </mxCell>
        <mxCell id="djvwbA_r1d7vHz5ifuuT-28" style="edgeStyle=orthogonalEdgeStyle;rounded=0;orthogonalLoop=1;jettySize=auto;html=1;exitX=0.5;exitY=0.5;exitDx=0;exitDy=0;exitPerimeter=0;entryX=0;entryY=0.5;entryDx=0;entryDy=0;" edge="1" parent="1" source="djvwbA_r1d7vHz5ifuuT-24" target="djvwbA_r1d7vHz5ifuuT-18">
          <mxGeometry relative="1" as="geometry" />
        </mxCell>
        <mxCell id="djvwbA_r1d7vHz5ifuuT-24" value="Korisnik" style="shape=umlActor;verticalLabelPosition=bottom;verticalAlign=top;html=1;outlineConnect=0;fontSize=18;" vertex="1" parent="1">
          <mxGeometry x="90" y="180" width="50" height="105" as="geometry" />
        </mxCell>
        <mxCell id="djvwbA_r1d7vHz5ifuuT-29" value="Sustav" style="text;html=1;strokeColor=none;fillColor=none;align=center;verticalAlign=middle;whiteSpace=wrap;rounded=0;" vertex="1" parent="1">
          <mxGeometry x="460" y="30" width="60" height="30" as="geometry" />
        </mxCell>
      </root>
    </mxGraphModel>
  </diagram>
</mxfile>
